<mxfile host="app.diagrams.net" agent="Mozilla/5.0 (Macintosh; Intel Mac OS X 10_15_7) AppleWebKit/537.36 (KHTML, like Gecko) Chrome/130.0.0.0 Safari/537.36" version="24.8.6">
  <diagram id="C5RBs43oDa-KdzZeNtuy" name="Page-1">
    <mxGraphModel grid="1" page="1" gridSize="10" guides="1" tooltips="1" connect="1" arrows="1" fold="1" pageScale="1" pageWidth="827" pageHeight="1169" math="0" shadow="0">
      <root>
        <mxCell id="WIyWlLk6GJQsqaUBKTNV-0" />
        <mxCell id="WIyWlLk6GJQsqaUBKTNV-1" parent="WIyWlLk6GJQsqaUBKTNV-0" />
        <mxCell id="Jr42eCUc6g5V1k2Y49N9-2" value="OdeLoggingConsumer" style="rounded=0;whiteSpace=wrap;html=1;fillColor=#D4E1F5;container=0;" vertex="1" parent="WIyWlLk6GJQsqaUBKTNV-1">
          <mxGeometry y="30" width="160" height="60" as="geometry" />
        </mxCell>
        <mxCell id="DR_WjZrev5LTQAYEtIf2-5" value="ode-data-logger" style="swimlane;whiteSpace=wrap;html=1;" vertex="1" parent="WIyWlLk6GJQsqaUBKTNV-1">
          <mxGeometry x="-20" y="-50" width="480" height="190" as="geometry" />
        </mxCell>
        <mxCell id="h9xa3h-WE63CrwY7eHSd-0" value="" style="endArrow=classic;html=1;rounded=0;entryX=0;entryY=0.5;entryDx=0;entryDy=0;" edge="1" parent="DR_WjZrev5LTQAYEtIf2-5" target="DR_WjZrev5LTQAYEtIf2-1">
          <mxGeometry width="50" height="50" relative="1" as="geometry">
            <mxPoint x="180" y="110" as="sourcePoint" />
            <mxPoint x="230" y="60" as="targetPoint" />
          </mxGeometry>
        </mxCell>
        <mxCell id="DR_WjZrev5LTQAYEtIf2-1" value="DataLoggerConfiguration" style="rounded=0;whiteSpace=wrap;html=1;fillColor=#D4E1F5;container=0;" vertex="1" parent="DR_WjZrev5LTQAYEtIf2-5">
          <mxGeometry x="300" y="80" width="160" height="60" as="geometry" />
        </mxCell>
      </root>
    </mxGraphModel>
  </diagram>
</mxfile>
